<svg width="36" height="36" fill="none" xmlns="http://www.w3.org/2000/svg"><path d="M18 12.012c-3.297 0-5.988 2.69-5.988 5.988 0 3.297 2.69 5.988 5.988 5.988 3.297 0 5.988-2.69 5.988-5.988 0-3.297-2.69-5.988-5.988-5.988zM35.96 18c0-2.48.022-4.937-.117-7.412-.14-2.875-.795-5.427-2.898-7.529C30.84.952 28.293.301 25.418.162c-2.48-.14-4.937-.117-7.413-.117-2.48 0-4.937-.023-7.412.117C7.717.3 5.166.957 3.063 3.059.957 5.166.305 7.713.166 10.588.026 13.068.049 15.525.049 18c0 2.475-.022 4.937.117 7.412.14 2.875.795 5.427 2.897 7.53 2.107 2.106 4.654 2.757 7.53 2.897 2.479.139 4.936.116 7.412.116 2.48 0 4.936.023 7.412-.116 2.875-.14 5.426-.796 7.529-2.898 2.106-2.107 2.758-4.654 2.897-7.529.144-2.475.117-4.932.117-7.412zM18 27.213A9.2 9.2 0 018.786 18 9.2 9.2 0 0118 8.787 9.2 9.2 0 0127.213 18 9.2 9.2 0 0118 27.213zm9.59-16.652a2.15 2.15 0 01-2.151-2.152 2.15 2.15 0 012.152-2.152 2.15 2.15 0 011.988 2.976 2.149 2.149 0 01-1.988 1.328z" fill="#E24C67"/></svg>