<svg width="295" height="93" viewBox="0 0 295 93" fill="none" xmlns="http://www.w3.org/2000/svg">
<path d="M24.1306 26.5417C24.1306 31.421 24.1306 31.6778 24.3898 37.0835V37.2761C24.3898 41.9115 19.854 43.1826 17.7416 43.1826C17.4864 43.1944 17.2334 43.1313 17.0143 43.001C16.7953 42.8708 16.62 42.6794 16.5104 42.4507C15.6421 40.987 10.4583 38.8298 10.4583 38.3932H10.6657C10.8422 38.3724 11.0205 38.3724 11.197 38.3932C13.2426 38.8043 15.3187 39.0491 17.4046 39.1251C19.7244 39.1251 20.5538 38.4446 20.6575 36.6341C20.6575 35.4657 20.7611 31.2284 20.7611 26.5417H16.9381C14.1777 26.5417 6.64823 26.6444 2.26791 27.081C1.37371 27.081 0 25.1806 0 24.5129C5.06717 25.1036 14.3721 25.2962 17.2361 25.2962H20.7352V16.6547H19.8021C17.1325 16.6547 10.4842 16.7574 6.2076 17.194C5.13197 17.271 3.65458 15.3707 3.65458 14.703C8.5792 15.2808 17.1973 15.4734 19.9576 15.4734H20.6445C20.6445 15.1396 20.6445 8.84783 20.2946 6.84476C14.8775 7.38405 9.07166 7.71789 4.53583 7.71789C3.84897 7.71789 3.30468 7.52529 3.30468 7.33269C3.30468 7.14008 3.60274 6.99884 4.34144 6.99884C12.1171 6.26695 28.2776 3.33937 31.375 0.899726L31.7249 0.655762C31.7249 0.655762 35.6127 3.6347 35.6127 4.90588C35.6127 5.29109 35.3147 5.44517 34.8222 5.44517C34.4679 5.44201 34.1169 5.3768 33.7854 5.25257C33.5109 5.17189 33.2286 5.12024 32.9431 5.09848C32.8326 5.06964 32.7166 5.06964 32.6061 5.09848C30.4419 5.53505 27.5778 5.97162 24.338 6.38251C24.6749 6.38251 25.8024 6.67783 25.8024 7.20428C25.8024 7.73073 25.3618 7.89766 24.7786 8.09026C24.1954 8.28287 24.0788 8.66807 24.0788 15.4991H31.8545C32.0172 15.4941 32.1767 15.4522 32.3205 15.3765C32.4643 15.3008 32.5886 15.1934 32.6839 15.0625C33.5781 13.7785 35.0555 11.8011 35.5998 11.8011C37.0772 11.8011 40.4725 15.1652 40.4725 16.0897C40.4725 16.3851 40.2652 16.6675 39.4358 16.6675H24.1306V25.309H35.1721C35.3357 25.3082 35.4966 25.268 35.6411 25.192C35.7856 25.1159 35.9092 25.0063 36.0015 24.8725C36.3514 24.3332 38.2176 21.3542 39.06 21.3542C40.5892 21.3542 44.1271 25.2063 44.1271 25.9896C44.1271 26.2849 43.8809 26.5288 43.0385 26.5288L24.1306 26.5417ZM78.2106 25.5145C77.516 25.534 76.8233 25.5984 76.1371 25.7071C77.0565 26.5217 77.8046 27.5082 78.3383 28.6099C78.872 29.7116 79.181 30.9069 79.2474 32.1272C79.1798 33.8801 78.4187 35.5363 77.1285 36.7376C75.8384 37.939 74.1229 38.5891 72.3529 38.5473C71.0812 38.5335 69.84 38.1592 68.7761 37.4687C66.7208 36.3072 64.5492 35.3605 62.2964 34.6439C58.3048 38.252 57.2162 38.6372 55.8166 38.6372C55.4015 38.6668 54.9845 38.6142 54.5901 38.4825C54.1957 38.3509 53.8316 38.1427 53.5192 37.8702C53.2068 37.5977 52.9523 37.2664 52.7704 36.8954C52.5886 36.5245 52.4831 36.1214 52.4601 35.7096C52.4601 35.0804 53.0044 33.3727 53.756 33.3727C54.0137 33.413 54.2531 33.5293 54.4429 33.7065C54.5869 33.8774 54.7674 34.0144 54.9713 34.1076C55.1753 34.2009 55.3976 34.2481 55.6222 34.2458C56.2673 34.191 56.8917 33.9936 57.4495 33.668C59.9118 32.4867 62.3741 30.6377 65.0827 29.0841C67.4754 27.6185 70.0164 26.4049 72.664 25.4631C69.9554 21.7138 69.2686 20.1472 69.2686 18.7348C69.3824 17.1637 70.0418 15.68 71.1347 14.5361L73.0657 12.3019C73.491 11.8989 73.7652 11.3646 73.8433 10.7867C73.8521 10.5968 73.8023 10.4087 73.7007 10.2474C72.7676 8.73227 71.5365 7.42257 71.5365 5.50937C71.5365 5.0728 71.5365 3.71174 72.0289 3.71174C72.2752 3.71174 72.5214 4.09695 72.8195 4.8802C73.5063 6.83192 77.0961 8.48831 78.4828 10.1447C79.1636 10.9063 79.5773 11.8658 79.6621 12.8797C79.6746 13.1414 79.63 13.4027 79.5314 13.6459C79.4327 13.889 79.2823 14.1082 79.0905 14.2885C78.8986 14.4689 78.6698 14.6061 78.4195 14.691C78.1693 14.7758 77.9036 14.8062 77.6404 14.78C77.0895 14.7641 76.5438 14.669 76.0205 14.4975C75.7269 14.4319 75.4272 14.3975 75.1263 14.3948C72.8195 14.3948 70.409 16.7317 70.409 18.4909C70.5413 19.6169 71.021 20.6752 71.7827 21.5212C72.87 22.6797 74.03 23.769 75.2559 24.7826C76.423 24.5333 77.6129 24.4042 78.8068 24.3974C86.3363 24.3974 92.5827 29.7646 92.5827 33.6167C92.6578 34.2729 92.4749 34.9326 92.0718 35.4587C91.6688 35.9848 91.0766 36.3367 90.4185 36.4415C88.8504 36.4415 88.3061 34.4898 87.8266 32.4867C87.2714 30.4096 86.0137 28.5841 84.2635 27.3151C82.5134 26.0461 80.3768 25.4105 78.2106 25.5145ZM73.4286 26.4903C70.7719 27.5689 67.7264 29.572 62.9962 34.0019C65.5513 34.6255 68.1507 35.0547 70.7719 35.2859C73.4286 35.2859 75.5539 34.0019 75.5539 31.5751C75.4592 30.0635 74.9284 28.6106 74.0247 27.3891L73.4286 26.4903ZM85.5457 20.9819C84.369 19.6481 82.9708 18.5234 81.4116 17.6562C80.971 17.4123 80.6211 17.2197 80.6211 17.1298C80.6211 16.7317 82.4484 16.7317 82.5391 16.7317C86.427 16.7317 88.3579 18.4395 88.3579 20.0574C88.3866 20.4655 88.2516 20.8683 87.9822 21.1785C87.7129 21.4886 87.331 21.6809 86.9194 21.7138C86.6517 21.6931 86.3912 21.6174 86.1547 21.4913C85.9181 21.3653 85.7107 21.1918 85.5457 20.9819ZM90.7295 18.6321C89.5018 17.3199 88.0496 16.2332 86.4399 15.422C85.9993 15.2294 85.6624 15.0754 85.6624 14.9341C85.6624 14.7929 86.7898 14.4975 87.9691 14.4975C90.4833 14.4975 93.4899 15.4606 93.4899 17.6562C93.5228 18.0584 93.3964 18.4575 93.1376 18.769C92.8789 19.0805 92.5079 19.2801 92.1032 19.3255C91.8354 19.3153 91.5729 19.2482 91.3336 19.1285C91.0943 19.0089 90.8839 18.8396 90.7166 18.6321H90.7295ZM113.318 8.88636C110.519 8.88636 109.832 10.5427 109.832 11.9038C109.832 12.4186 109.915 12.93 110.078 13.419C110.358 14.2472 110.507 15.1135 110.519 15.987C110.418 17.4212 110.188 18.8435 109.832 20.2371C109.464 22.2029 109.264 24.1959 109.236 26.195C109.236 27.7487 109.43 30.0471 110.765 30.0471C111.305 29.9693 111.814 29.7523 112.242 29.4179C113.422 28.6346 114.705 27.3121 117.011 25.8483C118.647 24.8172 120.542 24.2612 122.48 24.2433C126.368 24.2433 130.606 26.9269 130.606 31.3696C130.606 38.6757 120.757 43.311 112.294 43.311C111.892 43.311 111.646 43.311 111.646 43.2212C111.646 43.1313 112.294 42.8745 113.616 42.5406C119.176 41.2566 126.77 36.7754 126.77 31.3183C126.746 29.9104 126.165 28.5682 125.152 27.581C124.138 26.5938 122.774 26.0407 121.353 26.0409C117.996 26.0409 116.325 28.442 113.175 33.2186C112.437 34.3357 111.698 34.875 110.907 34.875C109.43 34.875 106.423 33.026 106.423 27.2607C106.504 24.5773 106.786 21.9034 107.266 19.2613C107.506 17.9128 107.636 16.5473 107.655 15.1781V14.4462C107.637 14.1383 107.637 13.8296 107.655 13.5217C107.655 11.0307 108.951 9.51553 111.05 8.15446L113.901 6.48523C114.161 6.35554 114.382 6.16253 114.546 5.9244C114.709 5.68628 114.808 5.41087 114.834 5.12417C114.825 4.95839 114.794 4.79446 114.743 4.63624C114.394 3.85298 113.81 3.06973 113.603 2.5818C113.481 2.28235 113.386 1.97303 113.318 1.6573C113.318 1.51606 113.318 1.4647 113.564 1.4647C114.743 1.4647 120.899 4.49499 120.899 7.70505C120.922 8.25781 120.731 8.79824 120.364 9.2159C119.998 9.63356 119.485 9.8969 118.929 9.9521C118.214 9.9153 117.512 9.74997 116.856 9.46417C115.709 9.11007 114.519 8.9156 113.318 8.88636ZM173.308 36.5314C173.152 37.2633 173.061 37.4045 172.323 37.8925C168.933 39.6565 165.162 40.5775 161.333 40.5761C150.551 40.5761 140.805 34.4384 140.805 21.8422C140.805 12.0964 149.281 3.86582 160.555 3.86582C165.13 3.86582 167.735 4.79032 171.377 4.79032H172.271C173.061 4.79032 173.256 4.93156 173.256 5.90742C173.256 7.28133 174.137 11.6213 174.137 13.419C174.137 13.817 173.696 14.061 173.256 14.061C173.118 14.0776 172.979 14.0472 172.861 13.9748C172.743 13.9024 172.654 13.7924 172.608 13.6629C170.599 7.80777 165.674 5.52221 160.348 5.52221C153.609 5.52221 146.663 10.7354 146.663 21.855C146.663 32.9746 153.752 38.8426 161.825 38.8426C166.802 38.8426 171.143 34.8365 173.1 30.3938C173.17 30.2906 173.268 30.2093 173.383 30.1593C173.497 30.1093 173.624 30.0926 173.748 30.1113C174.241 30.1113 174.785 30.3938 174.785 30.8432C174.804 30.9234 174.804 31.0069 174.785 31.0871C174.123 32.8524 173.628 34.6751 173.308 36.5314ZM214.221 39.0994C214.228 39.193 214.215 39.2871 214.184 39.3757C214.153 39.4643 214.103 39.5455 214.039 39.6142C213.974 39.6829 213.896 39.7377 213.809 39.7751C213.722 39.8125 213.629 39.8316 213.534 39.8313C213.534 39.8313 210.138 39.4975 206.497 39.4975C204.763 39.4739 203.029 39.5855 201.313 39.8313H201.209C200.911 39.8313 200.769 39.5874 200.769 39.2535C200.767 39.0763 200.811 38.9016 200.897 38.7463C200.984 38.5911 201.109 38.4606 201.261 38.3675C203.231 38.0722 204.307 37.687 204.307 36.4672C204.307 35.2474 201.365 27.0039 200.911 25.7841C200.821 25.4888 200.419 25.1935 195.727 25.1935C194.198 25.1935 192.617 25.1935 191.088 25.3475C190.763 25.2933 190.429 25.3641 190.154 25.5454C189.88 25.7267 189.685 26.005 189.611 26.3234C188.924 28.6603 187.019 34.1688 186.759 35.4913C186.71 35.7325 186.679 35.9773 186.669 36.2232C186.669 37.7897 188.042 38.0337 190.155 38.3675C190.303 38.4649 190.425 38.5963 190.511 38.7506C190.597 38.9049 190.643 39.0774 190.647 39.2535C190.656 39.3308 190.649 39.4091 190.626 39.4835C190.603 39.5579 190.565 39.6268 190.514 39.6858C190.463 39.7449 190.4 39.7929 190.329 39.8267C190.258 39.8606 190.182 39.8797 190.103 39.8827C188.21 39.662 186.307 39.5462 184.401 39.536C182.916 39.5261 181.433 39.6421 179.969 39.8827H179.813C179.732 39.883 179.652 39.8665 179.577 39.8344C179.503 39.8022 179.436 39.7549 179.381 39.6957C179.326 39.6365 179.285 39.5666 179.259 39.4904C179.233 39.4143 179.223 39.3336 179.23 39.2535C179.235 39.0831 179.276 38.9157 179.352 38.7627C179.428 38.6098 179.537 38.475 179.671 38.3675C183.312 37.8283 184.051 35.9279 188.626 22.9593C190.349 17.9772 192.28 12.4688 194.043 7.88482C194.066 7.78777 194.066 7.68654 194.043 7.58949C194.025 7.35744 193.978 7.12864 193.9 6.90896C193.877 6.81191 193.877 6.71068 193.9 6.61363C193.887 6.46133 193.923 6.30885 194.002 6.17759C194.081 6.04633 194.199 5.94288 194.341 5.88174C195.42 5.32614 196.363 4.54135 197.101 3.58334C197.347 3.28801 197.594 3.09541 197.788 3.09541C197.982 3.09541 198.28 3.33937 198.384 3.8273C198.825 5.83038 199.68 8.9634 209.465 34.4641C209.734 35.4514 210.286 36.3403 211.054 37.0238C211.822 37.7072 212.773 38.1561 213.793 38.3162C213.919 38.4066 214.023 38.5239 214.097 38.6595C214.171 38.7951 214.213 38.9455 214.221 39.0994ZM195.416 10.5427C195.416 10.3887 195.274 10.3501 195.222 10.3501C194.73 10.3501 190.79 22.8309 190.79 22.9336C190.79 23.0363 191.127 23.1775 191.334 23.1775H199.499C199.706 23.1775 199.9 23.0748 199.9 22.8822C199.9 22.6896 196.453 13.1236 195.416 10.5427ZM258.542 17.8617C258.542 22.0476 258.646 26.6829 258.737 30.0599C258.944 35.7096 258.737 37.7641 263.078 38.3419C263.208 38.4164 263.317 38.5228 263.395 38.6509C263.472 38.7791 263.514 38.9246 263.519 39.0738C263.527 39.247 263.471 39.4173 263.361 39.5523C263.251 39.6873 263.095 39.7775 262.923 39.8057C262.923 39.8057 258.944 39.4718 254.952 39.4718C253.124 39.4441 251.295 39.5557 249.484 39.8057H249.393C249.095 39.8057 248.939 39.5232 248.939 39.2278C248.937 39.0548 248.976 38.8837 249.055 38.7293C249.134 38.5749 249.25 38.4419 249.393 38.3419C253.423 37.8154 253.825 36.8781 253.825 32.1015V30.933C253.825 28.4934 253.721 22.5355 253.721 17.7076V12.1349C253.721 11.9423 253.721 11.891 253.618 11.891C253.073 11.891 242.395 33.0645 240.23 37.6485C239.777 38.6244 239.492 38.9325 238.844 38.9325C238.196 38.9325 238.014 38.3932 237.768 37.5201C236.415 33.9201 234.818 30.4152 232.986 27.0296C230.822 22.741 227.971 16.9243 226.092 12.8283C225.949 12.4431 225.794 12.3019 225.755 12.3019C225.457 12.3019 224.718 23.1775 224.718 28.3907C224.718 37.2248 224.718 37.7127 228.956 38.3419C229.076 38.4225 229.175 38.5316 229.243 38.6593C229.311 38.787 229.346 38.9294 229.344 39.0738C229.363 39.249 229.31 39.4243 229.198 39.5613C229.087 39.6984 228.925 39.7863 228.748 39.8057C226.703 39.5925 224.649 39.4811 222.593 39.4718C221.039 39.4545 219.487 39.5661 217.953 39.8057H217.862C217.512 39.8057 217.37 39.5617 217.37 39.2278C217.365 39.0557 217.402 38.8849 217.479 38.7305C217.556 38.576 217.67 38.4426 217.81 38.3419C221.608 37.9567 222.139 35.9022 222.631 28.8786C222.735 26.593 223.474 15.8586 223.824 11.4672V10.7353C223.824 7.66653 222.009 6.53659 218.407 6.04866C218.283 5.95915 218.182 5.84107 218.115 5.70461C218.047 5.56815 218.014 5.41742 218.018 5.26541C218.012 5.17457 218.026 5.08358 218.059 4.99846C218.091 4.91334 218.141 4.83604 218.206 4.77168C218.271 4.70733 218.349 4.65739 218.435 4.62519C218.521 4.59298 218.613 4.57924 218.705 4.58488C218.705 4.58488 221.361 4.82884 224.031 4.82884C225.233 4.85541 226.434 4.77376 227.621 4.58488C227.719 4.56675 227.82 4.56675 227.919 4.58488C228.36 4.58488 228.463 4.8802 228.554 5.56073C228.645 6.24127 229.539 8.12878 229.785 8.78363C233.336 17.515 238.598 26.0538 240.671 30.9844C240.762 31.177 240.865 31.2797 240.969 31.2797C241.306 31.2797 253.669 7.42257 254.11 5.47085C254.13 5.28216 254.224 5.10881 254.372 4.98856C254.52 4.86831 254.71 4.8109 254.901 4.82884H255.043C256.132 4.93156 257.259 4.98292 258.348 4.98292C260.013 4.99205 261.677 4.87616 263.324 4.63624C263.674 4.63624 263.869 4.98292 263.869 5.36813C263.88 5.52014 263.843 5.67181 263.764 5.80269C263.686 5.93357 263.568 6.03735 263.428 6.10002C258.594 6.69067 258.542 7.85914 258.542 17.8617ZM281.493 24.102C280.858 24.102 280.612 23.7554 280.612 23.3701C280.602 23.2019 280.658 23.0362 280.77 22.9088C280.881 22.7815 281.039 22.7028 281.208 22.6896H281.403C282.429 22.7558 283.458 22.6066 284.422 22.2518C285.386 21.8971 286.264 21.3447 286.998 20.6309C287.731 19.9171 288.305 19.0579 288.681 18.1094C289.057 17.1609 289.226 16.1446 289.178 15.1267C289.178 12.1991 287.947 6.13854 281.506 6.13854C278.5 6.13854 278.448 7.21712 278.448 12.9182C278.448 16.231 278.344 20.3398 278.344 23.9993C278.344 37.8925 278.552 37.9952 283.528 38.4317C283.652 38.5338 283.752 38.6613 283.821 38.8054C283.891 38.9495 283.928 39.1067 283.93 39.2664C283.939 39.3369 283.933 39.4085 283.913 39.4767C283.892 39.5448 283.858 39.6081 283.812 39.6624C283.765 39.7167 283.708 39.7609 283.644 39.7922C283.579 39.8235 283.509 39.8412 283.437 39.8442C283.437 39.8442 279.355 39.5103 275.208 39.5103C273.285 39.4868 271.362 39.5983 269.454 39.8442H269.299C269.232 39.8525 269.164 39.8457 269.101 39.8241C269.037 39.8025 268.979 39.7669 268.932 39.7198C268.884 39.6727 268.848 39.6154 268.826 39.5524C268.805 39.4894 268.798 39.4223 268.806 39.3562C268.818 39.1765 268.868 39.0014 268.953 38.8421C269.038 38.6828 269.156 38.543 269.299 38.4317C273.588 37.9438 273.394 36.7754 273.536 30.291V12.9182C273.342 6.67783 273.096 6.67783 269.156 6.24127C269.022 6.15759 268.912 6.04206 268.835 5.90523C268.758 5.7684 268.717 5.61465 268.715 5.45801C268.705 5.29178 268.759 5.12786 268.868 5.00088C268.977 4.87389 269.131 4.79379 269.299 4.77748C270.88 4.86736 272.253 4.91872 273.588 4.91872C276.18 4.91872 278.409 4.77748 281.364 4.6234H282.31C288.66 4.6234 294.518 7.55097 294.518 14.1894C294.401 22.5869 286.379 24.102 281.493 24.102Z" fill="#FCFCFC"/>
<path d="M133.859 74.3859L130.736 70.3411L122.765 75.8369L123.478 65.0894L118.372 65.7571L119.189 75.3361L110.117 69.3652L108.134 74.0649L116.934 78.161L107.188 82.9248L110.311 86.9696L118.333 81.4738L117.62 92.2085L122.727 91.5536L121.91 81.9618L130.982 87.8941L132.952 83.1945L124.165 79.0983L133.859 74.3859Z" fill="#FCFCFC"/>
<path d="M140.766 83.0404C140.496 82.2122 140.39 81.3401 140.455 80.4722C140.54 80.3899 140.654 80.3438 140.773 80.3438C140.891 80.3438 141.005 80.3899 141.09 80.4722C141.518 81.7563 142.386 82.9633 143.591 82.9633C143.935 82.9633 144.265 82.828 144.508 82.5872C144.751 82.3464 144.887 82.0198 144.887 81.6793C144.887 80.8318 144.123 80.2796 143.319 79.8944C142.114 79.3166 140.87 78.4691 140.87 77.0053C140.87 75.2205 142.386 74.1675 144.304 74.1675C145.047 74.1644 145.781 74.3222 146.455 74.6298C146.732 75.3368 146.851 76.0944 146.805 76.8512C146.733 76.942 146.631 77.0038 146.516 77.0251C146.402 77.0464 146.283 77.0256 146.183 76.9668C145.833 75.9138 145.095 75.0407 144.187 75.0407C143.859 75.0399 143.542 75.1628 143.302 75.3845C143.061 75.6062 142.914 75.9101 142.891 76.2349C142.891 76.8897 143.565 77.3777 144.447 77.7886C145.743 78.3792 147.039 79.1625 147.039 80.973C147.039 82.7835 145.263 83.8365 143.436 83.8365C142.516 83.8633 141.611 83.6076 140.844 83.1046" fill="#FCFCFC"/>
<path d="M151.069 80.6779C151.069 82.2445 151.147 82.4628 151.872 82.5912H152.196C152.339 82.7324 152.313 83.1177 152.196 83.1947H147.661C147.492 83.1177 147.466 82.7324 147.661 82.5912H148.127C148.84 82.4756 148.931 82.2573 148.931 80.6907V77.6218C148.931 76.6716 148.931 76.4276 148.399 76.1066L148.14 75.9653C148.102 75.8894 148.083 75.806 148.083 75.7214C148.083 75.6368 148.102 75.5533 148.14 75.4774C149.097 75.1911 150.022 74.8081 150.901 74.3345C150.959 74.3332 151.017 74.3498 151.065 74.3819C151.114 74.4141 151.151 74.4603 151.173 74.5143V75.4774C151.173 75.4774 151.173 75.67 151.367 75.6828C152.204 75.0475 153.217 74.6802 154.27 74.6299C155.981 74.6299 156.862 75.8112 156.862 77.4549V80.7036C156.862 82.2702 156.94 82.4885 157.665 82.604H158.145C158.3 82.7453 158.274 83.1305 158.145 83.2075H153.583C153.415 83.1305 153.402 82.7453 153.583 82.604H153.907C154.62 82.4756 154.711 82.2573 154.711 80.6907V77.7887C154.711 76.7101 154.283 75.8754 153.013 75.8754C152.745 75.8684 152.48 75.9227 152.237 76.0341C151.994 76.1454 151.781 76.3109 151.613 76.5175C151.341 76.9027 151.315 77.0953 151.315 77.8016L151.069 80.6779ZM166.996 78.9059C167.029 79.5163 166.93 80.1266 166.707 80.6964C166.484 81.2663 166.141 81.7826 165.701 82.2111C165.261 82.6397 164.734 82.9708 164.155 83.1824C163.577 83.394 162.959 83.4814 162.344 83.4387C161.758 83.4787 161.171 83.3962 160.62 83.1968C160.069 82.9973 159.566 82.6852 159.144 82.2808C158.723 81.8764 158.392 81.3887 158.173 80.8493C157.954 80.3099 157.851 79.7309 157.873 79.1499C157.857 78.5413 157.966 77.9359 158.194 77.3707C158.423 76.8056 158.765 76.2927 159.201 75.8634C159.637 75.4341 160.156 75.0976 160.728 74.8745C161.299 74.6513 161.911 74.5462 162.525 74.5657C163.112 74.5371 163.699 74.6291 164.248 74.836C164.798 75.0428 165.298 75.3599 165.718 75.7675C166.138 76.1751 166.468 76.6643 166.688 77.2043C166.908 77.7444 167.013 78.3237 166.996 78.9059ZM162.603 82.604C164.067 82.604 164.495 80.8705 164.495 79.2526C164.495 77.6346 163.873 75.4003 162.305 75.4003C161.229 75.4003 160.374 76.4918 160.374 78.8288C160.374 80.7421 161.074 82.5912 162.603 82.5912" fill="#FCFCFC"/>
<path d="M176.133 75.5279C175.77 75.6178 175.601 75.682 175.601 75.8104C175.614 75.9837 175.658 76.1534 175.731 76.3112C176.12 77.3385 177.105 79.4828 177.519 80.3817C177.869 79.6754 178.699 77.5696 178.997 76.7478C179.115 76.4688 179.193 76.175 179.23 75.8746C179.23 75.7462 179.087 75.6563 178.828 75.5921L178.103 75.4509C178.02 75.3691 177.974 75.2583 177.974 75.1427C177.974 75.0272 178.02 74.9164 178.103 74.8346H181.511C181.705 74.9244 181.718 75.284 181.576 75.4509L181.174 75.5536C180.617 75.7077 180.435 75.8233 179.982 76.8377L178.686 79.7525C178.219 80.8311 177.675 82.1922 177.247 83.3221C177.199 83.3679 177.142 83.403 177.08 83.4252C177.017 83.4473 176.951 83.456 176.884 83.4505C176.747 83.455 176.614 83.4093 176.509 83.3221C175.744 81.4731 174.616 78.9949 173.981 77.6081C173.346 78.9564 171.882 82.1536 171.48 83.3221C171.432 83.3672 171.375 83.4019 171.312 83.424C171.25 83.4461 171.184 83.4552 171.117 83.4505C170.98 83.455 170.847 83.4093 170.742 83.3221C170.573 82.8599 170.119 81.7556 169.679 80.754C169.238 79.7525 168.577 78.1859 167.683 76.2342C167.608 76.0311 167.477 75.8528 167.305 75.719C167.134 75.5853 166.928 75.5013 166.711 75.4766L166.348 75.3995C166.269 75.3162 166.225 75.2059 166.225 75.0914C166.225 74.9768 166.269 74.8666 166.348 74.7832H170.69C170.766 74.868 170.809 74.9777 170.809 75.0914C170.809 75.2051 170.766 75.3148 170.69 75.3995L170.34 75.5023C170.016 75.5921 169.834 75.6564 169.834 75.7976C169.873 76.03 169.947 76.2552 170.055 76.4653L170.612 77.8392C171.014 78.8408 171.506 79.9322 171.675 80.3303C171.882 79.9194 172.219 79.1361 172.439 78.6482L173.035 77.2743C173.219 76.9318 173.291 76.5418 173.243 76.1571C173.048 75.6949 172.802 75.605 172.31 75.5023L171.908 75.3995C171.865 75.3576 171.833 75.3068 171.813 75.2509C171.793 75.1949 171.785 75.1351 171.792 75.076C171.798 75.0169 171.817 74.9599 171.849 74.9093C171.88 74.8586 171.922 74.8155 171.973 74.7832H176.314C176.36 74.8205 176.397 74.8675 176.423 74.9208C176.448 74.9741 176.462 75.0324 176.462 75.0914C176.462 75.1504 176.448 75.2086 176.423 75.2619C176.397 75.3152 176.36 75.3622 176.314 75.3995L176.133 75.5279ZM186.254 77.6209C186.254 76.6707 186.254 76.5038 185.723 76.1314L185.464 75.9645C185.419 75.8908 185.396 75.8065 185.396 75.7206C185.396 75.6346 185.419 75.5503 185.464 75.4766C186.437 75.1722 187.366 74.7404 188.224 74.1925C188.296 74.1881 188.368 74.207 188.429 74.2463C188.49 74.2857 188.536 74.3434 188.561 74.4108C188.505 74.6817 188.47 74.9564 188.457 75.2326C188.453 75.2894 188.467 75.3461 188.497 75.3946C188.527 75.443 188.572 75.4807 188.626 75.5023C189.412 75.0148 190.297 74.7036 191.218 74.5906C191.719 74.5837 192.216 74.6805 192.678 74.8749C193.139 75.0693 193.554 75.357 193.897 75.7196C194.24 76.0822 194.503 76.5117 194.668 76.9806C194.834 77.4495 194.899 77.9475 194.859 78.4427C194.884 79.1169 194.766 79.7888 194.513 80.4149C194.259 81.0409 193.875 81.6072 193.386 82.0769C192.898 82.5466 192.315 82.9093 191.675 83.1416C191.036 83.3738 190.355 83.4703 189.675 83.4248C189.363 83.4205 189.051 83.3947 188.742 83.3478C188.561 83.3478 188.431 83.5147 188.431 83.9256V85.9929C188.431 87.5466 188.509 87.7778 189.261 87.8548L190.025 87.9447C190.168 88.0859 190.155 88.4712 190.025 88.561H184.945C184.764 88.4712 184.751 88.0859 184.945 87.9447H185.502C186.215 87.842 186.306 87.6108 186.306 86.0571L186.254 77.6209ZM188.483 80.8953C188.483 81.1472 188.544 81.3955 188.661 81.619C188.779 81.8426 188.949 82.0348 189.157 82.1793C189.484 82.4248 189.875 82.5719 190.285 82.6031C191.749 82.6031 192.552 81.0879 192.552 79.149C192.552 77.2101 191.516 75.7848 189.857 75.7848C189.435 75.7709 189.025 75.9232 188.716 76.2085C188.548 76.4011 188.483 76.7606 188.483 77.6338V80.8953ZM198.242 78.1988C197.827 78.1988 197.788 78.1988 197.788 78.4813C197.764 78.913 197.827 79.3451 197.975 79.7521C198.122 80.159 198.351 80.5323 198.647 80.8497C198.944 81.1672 199.301 81.4224 199.699 81.6001C200.097 81.7778 200.527 81.8743 200.963 81.884C201.368 81.9137 201.772 81.8308 202.132 81.6448C202.491 81.4587 202.791 81.1769 202.998 80.8311C203.051 80.82 203.106 80.82 203.159 80.8312C203.212 80.8423 203.262 80.8643 203.306 80.8957C203.35 80.9271 203.386 80.9673 203.414 81.0137C203.441 81.0601 203.458 81.1116 203.464 81.1649C203.171 81.8611 202.673 82.4538 202.035 82.8659C201.397 83.2781 200.649 83.4907 199.888 83.4762C199.333 83.4914 198.781 83.3922 198.267 83.1848C197.753 82.9775 197.288 82.6665 196.902 82.2717C196.515 81.8769 196.216 81.4069 196.023 80.8914C195.83 80.3759 195.747 79.8263 195.779 79.2774C195.748 78.6759 195.84 78.0743 196.05 77.5091C196.261 76.944 196.585 76.4271 197.003 75.99C197.421 75.5528 197.925 75.2045 198.483 74.9661C199.041 74.7277 199.642 74.6044 200.25 74.6034C200.649 74.5756 201.05 74.6276 201.428 74.7563C201.806 74.885 202.154 75.0877 202.452 75.3525C202.749 75.6173 202.99 75.9386 203.159 76.2975C203.329 76.6563 203.424 77.0453 203.438 77.4412C203.444 77.6097 203.409 77.7772 203.335 77.9291C203.205 78.1217 202.713 78.1988 201.87 78.1988H198.242ZM200.186 77.3641C200.539 77.4016 200.896 77.3486 201.222 77.2101C201.294 77.1619 201.351 77.0966 201.39 77.0202C201.428 76.9437 201.447 76.8588 201.443 76.7735C201.454 76.5895 201.426 76.4051 201.36 76.233C201.293 76.0608 201.19 75.9048 201.057 75.7757C200.924 75.6466 200.765 75.5473 200.59 75.4846C200.415 75.4219 200.228 75.3973 200.043 75.4124C199.539 75.4262 199.055 75.6131 198.675 75.9409C198.294 76.2688 198.04 76.7174 197.957 77.2101C197.957 77.2999 197.957 77.3641 198.255 77.3641H200.186ZM211.11 80.5101C211.046 81.7941 211.37 82.3591 212.121 82.3591C212.376 82.3293 212.622 82.2508 212.847 82.128C212.951 82.128 213.106 82.3591 213.041 82.5517C212.769 82.8412 212.441 83.0725 212.075 83.2315C211.71 83.3905 211.315 83.4737 210.916 83.4762C210.633 83.4908 210.351 83.4457 210.087 83.3438C209.824 83.242 209.585 83.0858 209.387 82.8855C209.244 82.7443 209.154 82.6416 209.05 82.6416C208.946 82.6416 208.791 82.7443 208.48 82.9369C207.94 83.2769 207.317 83.4634 206.678 83.4762C206.401 83.4976 206.122 83.4615 205.859 83.3703C205.596 83.2791 205.355 83.1347 205.151 82.9463C204.948 82.758 204.786 82.5297 204.676 82.2761C204.567 82.0225 204.511 81.749 204.514 81.4731C204.514 80.7155 204.812 80.0221 206.277 79.5213L208.609 78.6867C209.024 78.5326 209.089 78.3529 209.089 78.1346V77.5953C209.089 76.5167 208.83 75.5921 207.793 75.5921C207.52 75.5705 207.25 75.655 207.04 75.8276C206.829 76.0003 206.695 76.2475 206.665 76.5167C206.668 76.6663 206.633 76.8142 206.563 76.9467C206.493 77.0792 206.39 77.1919 206.264 77.2743C205.849 77.5094 205.381 77.6375 204.903 77.6466C204.631 77.6466 204.501 77.5054 204.501 77.3128C204.501 77.1202 204.631 76.6194 205.331 76.0287C206.259 75.2768 207.4 74.8282 208.596 74.7447C210.281 74.7447 211.318 75.5279 211.188 77.377L211.11 80.5101ZM209.024 79.8038C209.024 79.5727 209.024 79.4443 208.855 79.4443C208.535 79.4847 208.221 79.5667 207.922 79.6883C207.593 79.7495 207.297 79.9257 207.088 80.1849C206.879 80.4441 206.77 80.769 206.782 81.1007C206.766 81.2647 206.784 81.4302 206.837 81.5865C206.89 81.7428 206.975 81.8863 207.088 82.0076C207.2 82.1288 207.337 82.2251 207.49 82.2901C207.643 82.3551 207.808 82.3874 207.974 82.3848C208.11 82.3965 208.247 82.3787 208.375 82.3325C208.503 82.2863 208.619 82.213 208.715 82.1175C208.812 82.022 208.886 81.9068 208.932 81.78C208.979 81.6531 208.997 81.5177 208.985 81.3832L209.024 79.8038ZM214.35 71.663C214.35 70.2633 214.35 70.1093 213.793 69.8011L213.56 69.647C213.443 69.57 213.417 69.2233 213.56 69.1591C214.376 68.9408 215.478 68.4914 216.346 68.1575C216.408 68.1473 216.471 68.1583 216.525 68.1887C216.579 68.2191 216.621 68.267 216.644 68.3244V78.0318C216.644 78.2887 216.644 78.3272 217.111 78.3272C217.577 78.3272 217.888 78.1988 218.484 77.5311L219.314 76.6322C219.767 76.1443 219.936 75.9132 219.936 75.8104C219.936 75.7077 219.845 75.6435 219.586 75.5921L219.016 75.5279C218.965 75.4924 218.924 75.4452 218.895 75.3905C218.866 75.3357 218.851 75.275 218.851 75.2134C218.851 75.1517 218.866 75.091 218.895 75.0362C218.924 74.9815 218.965 74.9343 219.016 74.8988H219.638C220.742 74.9024 221.845 74.8467 222.943 74.7318C223.137 74.8217 223.137 75.1941 222.943 75.361H222.554C221.979 75.4424 221.441 75.6929 221.012 76.0801C220.26 76.735 219.547 77.3641 219.21 77.698C219.182 77.7255 219.159 77.7585 219.143 77.7948C219.128 77.8312 219.12 77.8703 219.12 77.9099C219.12 77.9494 219.128 77.9885 219.143 78.0249C219.159 78.0613 219.182 78.0942 219.21 78.1217C220.134 79.4705 221.147 80.7573 222.243 81.9739C222.575 82.2817 222.997 82.4792 223.448 82.5389H223.655C223.785 82.7058 223.785 83.0653 223.59 83.1424H218.951C218.903 83.1078 218.864 83.0625 218.837 83.01C218.809 82.9576 218.795 82.8995 218.795 82.8406C218.795 82.7817 218.809 82.7236 218.837 82.6712C218.864 82.6187 218.903 82.5734 218.951 82.5389H219.158C219.366 82.5389 219.56 82.3848 219.56 82.282C219.525 82.0935 219.435 81.9193 219.301 81.7813L217.564 79.3673C217.499 79.2503 217.405 79.1508 217.293 79.077C217.18 79.0033 217.051 78.9575 216.916 78.9435C216.657 78.9435 216.592 79.0334 216.592 79.5984V80.5999C216.592 82.1665 216.683 82.3848 217.396 82.5003H217.862C218.018 82.6416 217.992 83.0268 217.862 83.1038H213.197C213.028 83.0268 213.003 82.6416 213.197 82.5003H213.651C214.376 82.3848 214.454 82.1665 214.454 80.5999L214.35 71.663ZM142.451 87.354C142.461 87.488 142.441 87.6225 142.394 87.7483C142.346 87.8742 142.272 87.9884 142.176 88.0834C142.08 88.1784 141.965 88.2518 141.838 88.2988C141.711 88.3458 141.575 88.3651 141.44 88.3556C141.312 88.3648 141.184 88.3471 141.064 88.3036C140.943 88.2601 140.833 88.1918 140.742 88.1032C140.65 88.0147 140.578 87.9078 140.531 87.7898C140.484 87.6717 140.462 87.5451 140.468 87.4182C140.465 87.2857 140.488 87.1539 140.538 87.0308C140.587 86.9077 140.662 86.7959 140.756 86.7022C140.851 86.6084 140.964 86.5348 141.088 86.4857C141.212 86.4366 141.345 86.4131 141.479 86.4167C141.606 86.4095 141.734 86.4286 141.853 86.4729C141.973 86.5171 142.082 86.5854 142.173 86.6736C142.264 86.7617 142.336 86.8677 142.384 86.9849C142.432 87.102 142.455 87.2277 142.451 87.354ZM141.492 88.163C141.816 88.163 141.907 87.7906 141.907 87.4311C141.907 87.0715 141.777 86.5964 141.427 86.5964C141.077 86.5964 141.012 86.8404 141.012 87.3412C141.012 87.842 141.168 88.163 141.492 88.163Z" fill="#FCFCFC"/>
<path d="M144.563 87.6115C144.563 87.8683 144.563 88.0995 144.68 88.0995C144.748 88.1118 144.819 88.1118 144.887 88.0995C144.899 88.1103 144.908 88.1233 144.914 88.1376C144.92 88.152 144.923 88.1674 144.923 88.183C144.923 88.1986 144.92 88.2141 144.914 88.2284C144.908 88.2428 144.899 88.2557 144.887 88.2665C144.625 88.2835 144.368 88.3398 144.123 88.4335V88.2537C143.939 88.383 143.725 88.4627 143.501 88.4849C143.073 88.4849 142.943 88.2537 142.943 87.8683V87.1491C142.943 86.828 142.943 86.8023 142.814 86.7638V86.6482C143.028 86.6527 143.242 86.6267 143.449 86.5711C143.438 86.6993 143.438 86.8282 143.449 86.9564V87.6628C143.449 87.9326 143.449 88.1895 143.825 88.1895C143.935 88.1906 144.042 88.1492 144.123 88.0739V87.1234C144.123 86.828 144.123 86.8151 143.915 86.7638H143.838C143.823 86.7455 143.815 86.7229 143.815 86.6995C143.815 86.6762 143.823 86.6535 143.838 86.6353C144.082 86.6419 144.326 86.616 144.563 86.5582V86.9436V87.6115ZM145.781 86.6738C145.704 86.6738 145.704 86.6738 145.704 86.8408V87.5472C145.704 87.8298 145.704 88.0867 146.041 88.0867C146.121 88.0868 146.199 88.0596 146.261 88.0096V88.0995C146.187 88.1831 146.095 88.2495 145.992 88.2939C145.889 88.3383 145.777 88.3596 145.665 88.3564C145.224 88.3564 145.146 88.0995 145.146 87.7784V86.8408C145.146 86.6867 145.146 86.6738 145.056 86.6738H144.9V86.5582C145.029 86.5101 145.151 86.4453 145.263 86.3656C145.369 86.2906 145.457 86.1943 145.522 86.083C145.541 86.0684 145.564 86.0605 145.587 86.0605C145.611 86.0605 145.633 86.0684 145.652 86.083V86.3656L145.743 86.4555H146.196C146.203 86.4695 146.207 86.4849 146.207 86.5004C146.207 86.516 146.203 86.5314 146.196 86.5454V86.661L145.781 86.6738ZM148.257 87.5344C148.257 87.9583 148.257 88.0995 148.36 88.0995H148.568C148.586 88.1238 148.595 88.153 148.595 88.183C148.595 88.213 148.586 88.2423 148.568 88.2665C148.318 88.2826 148.073 88.339 147.842 88.4335V88.1509C147.694 88.2797 147.507 88.3565 147.311 88.3693C147.195 88.3694 147.081 88.3463 146.974 88.3013C146.868 88.2563 146.772 88.1904 146.692 88.1075C146.612 88.0247 146.55 87.9266 146.509 87.8193C146.468 87.7119 146.45 87.5975 146.455 87.483C146.453 87.3409 146.481 87.1999 146.536 87.0687C146.591 86.9375 146.673 86.8188 146.776 86.7202C146.879 86.6215 147.002 86.5448 147.136 86.4948C147.271 86.4449 147.414 86.4228 147.557 86.4298H147.829V85.7619C147.829 85.4536 147.829 85.4151 147.725 85.3509H147.661V85.2481C147.868 85.1868 148.071 85.1139 148.27 85.0298V85.6977L148.257 87.5344ZM147.764 86.9693C147.785 86.8979 147.785 86.8223 147.764 86.7509C147.73 86.7015 147.683 86.6614 147.629 86.6345C147.574 86.6076 147.514 86.5946 147.453 86.5968C147.129 86.5968 146.935 86.905 146.935 87.2904C146.935 87.6757 147.181 88.0739 147.518 88.0739C147.619 88.0745 147.716 88.0379 147.79 87.9711V87.8427L147.764 86.9693ZM150.641 87.3546C150.649 87.4892 150.628 87.624 150.579 87.7498C150.53 87.8757 150.454 87.9898 150.358 88.0846C150.261 88.1793 150.145 88.2526 150.017 88.2995C149.889 88.3463 149.753 88.3658 149.618 88.3564C149.49 88.3656 149.361 88.3479 149.241 88.3044C149.121 88.2609 149.011 88.1926 148.919 88.104C148.827 88.0154 148.755 87.9085 148.708 87.7904C148.661 87.6723 148.64 87.5457 148.646 87.4188C148.642 87.2863 148.666 87.1544 148.715 87.0313C148.765 86.9081 148.839 86.7963 148.934 86.7025C149.028 86.6088 149.141 86.5351 149.265 86.486C149.39 86.4369 149.523 86.4134 149.656 86.417C149.784 86.4099 149.912 86.429 150.032 86.4731C150.153 86.5172 150.262 86.5854 150.355 86.6734C150.447 86.7613 150.52 86.8672 150.57 86.9844C150.619 87.1016 150.643 87.2276 150.641 87.3546ZM149.682 88.1638C149.993 88.1638 150.084 87.7913 150.084 87.4316C150.084 87.072 149.954 86.5968 149.618 86.5968C149.281 86.5968 149.19 86.8408 149.19 87.3417C149.19 87.8427 149.345 88.1638 149.682 88.1638ZM152.819 87.3546C152.828 87.4886 152.809 87.6231 152.761 87.749C152.714 87.8749 152.64 87.9892 152.544 88.0842C152.448 88.1792 152.333 88.2526 152.206 88.2996C152.079 88.3466 151.943 88.366 151.808 88.3564C151.68 88.3656 151.552 88.3479 151.431 88.3044C151.311 88.2609 151.201 88.1926 151.109 88.104C151.017 88.0154 150.946 87.9085 150.898 87.7904C150.851 87.6723 150.83 87.5457 150.836 87.4188C150.832 87.2863 150.856 87.1544 150.905 87.0313C150.955 86.9081 151.029 86.7963 151.124 86.7025C151.218 86.6088 151.331 86.5351 151.456 86.486C151.58 86.4369 151.713 86.4134 151.847 86.417C151.974 86.4098 152.101 86.4289 152.221 86.4732C152.34 86.5174 152.449 86.5858 152.541 86.6739C152.632 86.7621 152.704 86.8681 152.752 86.9853C152.8 87.1025 152.822 87.2282 152.819 87.3546ZM151.86 88.1638C152.184 88.1638 152.274 87.7913 152.274 87.4316C152.274 87.072 152.145 86.5968 151.795 86.5968C151.445 86.5968 151.38 86.8408 151.38 87.3417C151.38 87.8427 151.523 88.1638 151.86 88.1638Z" fill="#FCFCFC"/>
<path d="M153.285 87.0592C153.285 86.8537 153.285 86.8023 153.169 86.7381C153.156 86.7051 153.156 86.6684 153.169 86.6354C153.371 86.5737 153.566 86.4919 153.752 86.3914V86.6097C153.877 86.4906 154.035 86.4103 154.205 86.3785C154.237 86.375 154.269 86.3779 154.3 86.3871C154.33 86.3963 154.358 86.4116 154.383 86.4321C154.407 86.4526 154.427 86.4777 154.441 86.5061C154.455 86.5344 154.463 86.5653 154.464 86.5968C154.466 86.6316 154.461 86.6664 154.449 86.6991C154.436 86.7317 154.418 86.7616 154.393 86.7868C154.369 86.8121 154.34 86.8321 154.308 86.8458C154.275 86.8595 154.24 86.8666 154.205 86.8665C154.163 86.8794 154.118 86.8794 154.076 86.8665C154.012 86.8176 153.936 86.7866 153.855 86.7766C153.752 86.7766 153.726 86.8922 153.726 87.1105V87.7398C153.726 88.0865 153.726 88.125 153.907 88.1507H154.089C154.104 88.171 154.113 88.1958 154.113 88.2214C154.113 88.2469 154.104 88.2718 154.089 88.292H153.013C152.995 88.2729 152.985 88.2476 152.985 88.2214C152.985 88.1951 152.995 88.1698 153.013 88.1507H153.091C153.259 88.1507 153.272 88.1507 153.272 87.7398L153.285 87.0592ZM155.851 85.775C155.851 85.4668 155.851 85.4282 155.721 85.364V85.2613C155.929 85.1999 156.132 85.127 156.331 85.043V87.7398C156.331 88.0865 156.331 88.125 156.512 88.1507H156.616C156.631 88.171 156.64 88.1958 156.64 88.2214C156.64 88.2469 156.631 88.2718 156.616 88.292H155.605C155.587 88.2729 155.576 88.2476 155.576 88.2214C155.576 88.1951 155.587 88.1698 155.605 88.1507H155.696C155.851 88.1507 155.877 88.1507 155.877 87.7398L155.851 85.775ZM157.484 87.7398C157.484 88.0865 157.484 88.125 157.652 88.1507H157.743C157.759 88.171 157.767 88.1958 157.767 88.2214C157.767 88.2469 157.759 88.2718 157.743 88.292H156.758C156.742 88.2718 156.734 88.2469 156.734 88.2214C156.734 88.1958 156.742 88.171 156.758 88.1507H156.849C157.004 88.1507 157.017 88.1507 157.017 87.7398V87.0592C157.017 86.8537 157.017 86.8023 156.901 86.7381C156.888 86.7051 156.888 86.6684 156.901 86.6354C157.113 86.58 157.318 86.498 157.51 86.3914V86.9564L157.484 87.7398ZM156.901 85.5181C156.901 85.4398 156.932 85.3647 156.988 85.3093C157.044 85.2539 157.12 85.2228 157.199 85.2228C157.278 85.2228 157.354 85.2539 157.41 85.3093C157.466 85.3647 157.497 85.4398 157.497 85.5181C157.497 85.5965 157.466 85.6716 157.41 85.727C157.354 85.7824 157.278 85.8135 157.199 85.8135C157.12 85.8135 157.044 85.7824 156.988 85.727C156.932 85.6716 156.901 85.5965 156.901 85.5181Z" fill="#FCFCFC"/>
<path d="M158.728 86.6997C158.624 86.6997 158.624 86.6997 158.624 86.841V87.7398C158.624 88.0864 158.624 88.125 158.806 88.1506H158.987C159.003 88.1709 159.012 88.1957 159.012 88.2213C159.012 88.2468 159.003 88.2716 158.987 88.2919H157.873C157.857 88.2716 157.849 88.2468 157.849 88.2213C157.849 88.1957 157.857 88.1709 157.873 88.1506H157.977C158.145 88.1506 158.158 88.1506 158.158 87.7398V86.8281C158.158 86.7126 158.158 86.6997 158.067 86.6997H157.912V86.5842L158.106 86.4815C158.115 86.4659 158.12 86.4481 158.12 86.4301C158.12 86.4121 158.115 86.3944 158.106 86.3787V86.3017C158.1 86.08 158.131 85.8589 158.197 85.6469C158.254 85.4626 158.369 85.3012 158.525 85.1858C158.681 85.0705 158.87 85.0071 159.065 85.0049C159.389 85.0049 159.596 85.1461 159.596 85.3387C159.593 85.3956 159.569 85.4494 159.528 85.4896C159.488 85.5299 159.434 85.5539 159.376 85.557C159.349 85.5597 159.321 85.5552 159.296 85.544C159.271 85.5327 159.249 85.515 159.234 85.4928C159.091 85.2874 158.987 85.1975 158.871 85.1975C158.754 85.1975 158.586 85.5056 158.586 86.199V86.3274C158.586 86.4686 158.586 86.4815 158.689 86.4815H159.182C159.195 86.5049 159.203 86.5315 159.203 86.5585C159.203 86.5855 159.195 86.6121 159.182 86.6355L158.728 86.6997ZM159.713 87.2005H159.609C159.602 87.2958 159.615 87.3915 159.647 87.4816C159.679 87.5718 159.729 87.6544 159.795 87.7243C159.861 87.7942 159.94 87.85 160.029 87.888C160.117 87.926 160.213 87.9455 160.309 87.9452C160.399 87.9514 160.489 87.9331 160.569 87.8924C160.648 87.8516 160.716 87.79 160.763 87.7141L160.853 87.7911C160.791 87.9442 160.683 88.0751 160.545 88.1668C160.406 88.2584 160.243 88.3064 160.076 88.3047C159.954 88.3087 159.833 88.2872 159.72 88.2416C159.607 88.196 159.505 88.1273 159.421 88.0401C159.336 87.9529 159.271 87.8491 159.23 87.7354C159.189 87.6217 159.173 87.5007 159.182 87.3803C159.175 87.2495 159.195 87.1188 159.24 86.9959C159.286 86.8731 159.356 86.7608 159.447 86.6659C159.538 86.5709 159.648 86.4954 159.769 86.4438C159.891 86.3922 160.022 86.3657 160.154 86.3659C160.241 86.3589 160.329 86.3695 160.412 86.397C160.495 86.4245 160.571 86.4684 160.636 86.526C160.702 86.5836 160.755 86.6537 160.792 86.7321C160.829 86.8105 160.85 86.8956 160.853 86.9822C160.865 87.0155 160.865 87.0517 160.853 87.0849H160.542L159.713 87.2005ZM160.141 87.0079C160.213 87.0218 160.288 87.0218 160.361 87.0079C160.368 86.9939 160.371 86.9785 160.371 86.963C160.371 86.9474 160.368 86.932 160.361 86.918C160.363 86.8771 160.356 86.8362 160.341 86.798C160.326 86.7598 160.303 86.7251 160.274 86.6961C160.245 86.6671 160.21 86.6444 160.171 86.6296C160.133 86.6148 160.091 86.608 160.05 86.6099C159.94 86.6143 159.834 86.6564 159.752 86.7289C159.669 86.8014 159.614 86.9 159.596 87.0079H160.141ZM161.061 88.202C161.035 88.0318 161.035 87.8587 161.061 87.6884C161.079 87.6738 161.102 87.6659 161.126 87.6659C161.149 87.6659 161.172 87.6738 161.19 87.6884C161.281 87.9452 161.45 88.1892 161.696 88.1892C161.73 88.191 161.765 88.1856 161.797 88.1734C161.829 88.1611 161.859 88.1423 161.883 88.1181C161.908 88.0938 161.927 88.0648 161.939 88.0328C161.951 88.0008 161.957 87.9666 161.955 87.9324C161.955 87.7654 161.8 87.6499 161.644 87.5729C161.488 87.4958 161.152 87.2904 161.152 86.9951C161.152 86.6997 161.463 86.4301 161.838 86.4301C161.913 86.4026 161.994 86.3975 162.071 86.4157C162.149 86.4339 162.219 86.4744 162.273 86.5322C162.327 86.5899 162.363 86.6623 162.376 86.7402C162.388 86.818 162.377 86.8978 162.344 86.9694C162.325 86.9821 162.302 86.9889 162.279 86.9889C162.256 86.9889 162.233 86.9821 162.214 86.9694C162.214 86.7639 161.994 86.5842 161.812 86.5842C161.746 86.5841 161.682 86.6094 161.634 86.6548C161.585 86.7002 161.557 86.7623 161.553 86.8281C161.553 86.9565 161.696 87.0593 161.864 87.1363C162.008 87.1763 162.135 87.2597 162.228 87.3748C162.32 87.49 162.375 87.6311 162.383 87.7783C162.383 88.1763 162.02 88.3561 161.657 88.3561C161.468 88.3645 161.281 88.3103 161.126 88.202" fill="#FCFCFC"/>
<path d="M163.38 86.6743C163.303 86.6743 163.29 86.6743 163.29 86.8412V87.5474C163.29 87.8298 163.29 88.0866 163.627 88.0866C163.707 88.089 163.786 88.0615 163.847 88.0096C163.858 88.0086 163.869 88.0106 163.88 88.0153C163.89 88.0199 163.899 88.0272 163.905 88.0362C163.912 88.0453 163.916 88.0559 163.917 88.067C163.918 88.0781 163.916 88.0893 163.912 88.0995C163.841 88.1835 163.751 88.2503 163.65 88.2948C163.549 88.3393 163.439 88.3603 163.329 88.3562C162.875 88.3562 162.797 88.0995 162.797 87.7785V86.8412C162.797 86.6871 162.797 86.6743 162.719 86.6743H162.564V86.5587C162.693 86.5106 162.815 86.4458 162.927 86.3661C163.028 86.2904 163.112 86.1941 163.173 86.0837C163.193 86.068 163.219 86.0596 163.244 86.0596C163.27 86.0596 163.295 86.068 163.316 86.0837V86.3661L163.393 86.456H163.86V86.6614L163.38 86.6743ZM163.821 89.178C163.821 89.0239 163.925 88.9725 164.054 88.9725H164.158C164.195 88.973 164.232 88.9652 164.266 88.9497C164.299 88.9341 164.329 88.9112 164.352 88.8827C164.482 88.7148 164.563 88.515 164.586 88.3049C164.581 88.1898 164.554 88.0767 164.508 87.9711L164.132 87.0081C164.015 86.7256 163.99 86.6486 163.808 86.6101H163.717V86.4817H164.728V86.6101H164.599C164.482 86.6101 164.482 86.6101 164.599 86.854L164.806 87.3804C164.844 87.5018 164.896 87.6182 164.962 87.7271C165.021 87.6391 165.068 87.5443 165.104 87.4446L165.247 87.1365C165.317 86.9968 165.374 86.8506 165.415 86.7L165.324 86.6229H165.169V86.4945H165.972V86.6229C165.879 86.6368 165.79 86.672 165.713 86.7256C165.594 86.8637 165.498 87.0197 165.428 87.1878L165.195 87.6501C165.026 87.9711 164.625 88.7799 164.43 89.2036C164.408 89.2782 164.362 89.3435 164.298 89.3898C164.235 89.4361 164.159 89.4609 164.08 89.4604C164.046 89.4642 164.012 89.4607 163.98 89.4499C163.947 89.4392 163.918 89.4216 163.893 89.3984C163.869 89.3751 163.849 89.3468 163.837 89.3153C163.824 89.2839 163.819 89.2502 163.821 89.2165" fill="#FCFCFC"/>
<path d="M166.089 85.775C166.089 85.4668 166.089 85.4283 165.973 85.3641V85.2613L166.582 85.043V87.7401C166.582 88.0868 166.582 88.1254 166.763 88.1511H166.867C166.883 88.1713 166.891 88.1961 166.891 88.2217C166.891 88.2473 166.883 88.2721 166.867 88.2923H165.856C165.838 88.2733 165.828 88.248 165.828 88.2217C165.828 88.1954 165.838 88.1701 165.856 88.1511H165.973C166.128 88.1511 166.154 88.1511 166.154 87.7401L166.089 85.775ZM167.502 87.2007H167.398C167.393 87.2955 167.407 87.3905 167.44 87.4798C167.472 87.5692 167.523 87.6511 167.588 87.7206C167.653 87.7902 167.732 87.8459 167.82 87.8846C167.907 87.9232 168.002 87.944 168.098 87.9456C168.188 87.9548 168.279 87.9379 168.359 87.8968C168.44 87.8558 168.507 87.7924 168.551 87.7144L168.655 87.7914C168.59 87.9456 168.48 88.077 168.339 88.1686C168.199 88.2602 168.033 88.3077 167.865 88.3052C167.743 88.3072 167.623 88.2843 167.511 88.238C167.399 88.1917 167.298 88.123 167.214 88.0362C167.13 87.9494 167.065 87.8464 167.023 87.7335C166.981 87.6207 166.963 87.5005 166.97 87.3805C166.965 87.2491 166.987 87.118 167.034 86.9951C167.081 86.8722 167.153 86.76 167.245 86.6652C167.337 86.5705 167.447 86.4951 167.569 86.4436C167.691 86.3922 167.823 86.3657 167.955 86.3658C168.041 86.3606 168.128 86.3726 168.209 86.4009C168.291 86.4292 168.366 86.4734 168.43 86.5308C168.494 86.5883 168.545 86.6578 168.582 86.7353C168.618 86.8129 168.639 86.8968 168.642 86.9823C168.654 87.0156 168.654 87.0518 168.642 87.0851H168.331L167.502 87.2007ZM167.929 87.008C168.002 87.0219 168.077 87.0219 168.15 87.008C168.158 86.9943 168.162 86.9788 168.162 86.9631C168.162 86.9473 168.158 86.9318 168.15 86.9181C168.152 86.8771 168.145 86.8362 168.13 86.798C168.115 86.7598 168.092 86.7251 168.063 86.6961C168.033 86.6671 167.998 86.6445 167.96 86.6296C167.921 86.6148 167.88 86.608 167.839 86.6099C167.728 86.6143 167.623 86.6564 167.54 86.7289C167.458 86.8015 167.403 86.9 167.385 87.008H167.45H167.929ZM171.403 86.4814C171.435 86.51 171.461 86.5458 171.476 86.5861C171.492 86.6263 171.498 86.6697 171.493 86.7126C171.493 86.8539 171.415 86.9309 171.377 86.9309H171.286C171.246 86.8536 171.187 86.7872 171.114 86.7379C171.042 86.6886 170.959 86.6579 170.871 86.6484C170.599 86.6484 170.327 86.9053 170.327 87.3419C170.32 87.4328 170.332 87.5241 170.361 87.6103C170.391 87.6965 170.439 87.7757 170.501 87.8431C170.562 87.9105 170.638 87.9646 170.721 88.0021C170.805 88.0396 170.896 88.0597 170.988 88.0612C171.087 88.073 171.187 88.0562 171.277 88.0129C171.366 87.9697 171.442 87.9017 171.493 87.8171C171.516 87.8198 171.537 87.8284 171.556 87.8419C171.574 87.8554 171.588 87.8735 171.597 87.8942C171.528 88.0504 171.413 88.1827 171.268 88.2741C171.122 88.3656 170.953 88.4122 170.78 88.4079C170.539 88.4073 170.308 88.3154 170.133 88.1511C169.96 87.9756 169.863 87.741 169.86 87.4961C169.88 87.3236 169.938 87.1577 170.031 87.0107C170.124 86.8636 170.249 86.7392 170.398 86.6467C170.546 86.5542 170.713 86.4959 170.887 86.4762C171.061 86.4565 171.237 86.4758 171.403 86.5328" fill="#FCFCFC"/>
<path d="M171.895 87.0595C171.895 86.8541 171.895 86.8027 171.778 86.7385V86.6358C171.979 86.5692 172.174 86.4877 172.361 86.3918C172.371 86.3861 172.383 86.3832 172.394 86.3832C172.405 86.3832 172.416 86.3861 172.426 86.3918V86.5972C172.552 86.4782 172.709 86.3979 172.88 86.3661C172.912 86.3625 172.944 86.3655 172.974 86.3747C173.005 86.3839 173.033 86.3992 173.057 86.4197C173.081 86.4401 173.101 86.4653 173.115 86.4936C173.129 86.522 173.138 86.5529 173.139 86.5844C173.141 86.6203 173.135 86.6562 173.122 86.6898C173.109 86.7233 173.089 86.7538 173.063 86.7792C173.038 86.8046 173.007 86.8244 172.973 86.8373C172.939 86.8502 172.903 86.8559 172.867 86.8541C172.829 86.8651 172.788 86.8651 172.75 86.8541C172.686 86.8052 172.61 86.7742 172.53 86.7642C172.413 86.7642 172.387 86.8798 172.387 87.0981V87.7273C172.387 88.0741 172.387 88.1126 172.569 88.1383H172.75C172.766 88.1585 172.775 88.1833 172.775 88.2089C172.775 88.2345 172.766 88.2593 172.75 88.2795H171.662C171.643 88.2604 171.633 88.2352 171.633 88.2089C171.633 88.1826 171.643 88.1573 171.662 88.1383H171.739C171.895 88.1383 171.921 88.1383 171.921 87.7273L171.895 87.0595ZM173.67 87.2008H173.58C173.573 87.2961 173.585 87.3918 173.617 87.482C173.649 87.5721 173.7 87.6548 173.765 87.7247C173.831 87.7946 173.911 87.8504 173.999 87.8884C174.088 87.9264 174.183 87.9459 174.28 87.9456C174.368 87.954 174.456 87.9365 174.535 87.8954C174.613 87.8543 174.677 87.7914 174.72 87.7145C174.732 87.7127 174.744 87.7132 174.756 87.7162C174.768 87.7191 174.779 87.7242 174.788 87.7314C174.798 87.7386 174.806 87.7476 174.812 87.7579C174.818 87.7683 174.822 87.7797 174.824 87.7915C174.76 87.9437 174.652 88.0736 174.514 88.165C174.375 88.2564 174.213 88.3052 174.046 88.3052C173.924 88.3092 173.803 88.2876 173.69 88.242C173.577 88.1964 173.475 88.1278 173.391 88.0406C173.307 87.9534 173.242 87.8495 173.201 87.7358C173.159 87.6221 173.143 87.5011 173.152 87.3806C173.145 87.2499 173.165 87.1191 173.211 86.9962C173.256 86.8734 173.327 86.761 173.418 86.6661C173.509 86.5712 173.618 86.4956 173.74 86.444C173.861 86.3924 173.992 86.3659 174.124 86.3661C174.211 86.3591 174.299 86.3697 174.382 86.3972C174.465 86.4247 174.541 86.4686 174.607 86.5262C174.672 86.5838 174.725 86.6539 174.762 86.7323C174.8 86.8108 174.821 86.8959 174.824 86.9825C174.83 87.0165 174.83 87.0512 174.824 87.0852H174.5L173.67 87.2008ZM174.098 87.0082C174.175 87.0214 174.254 87.0214 174.331 87.0082C174.338 86.9942 174.342 86.9788 174.342 86.9632C174.342 86.9477 174.338 86.9323 174.331 86.9183C174.335 86.878 174.33 86.8373 174.317 86.7991C174.303 86.7609 174.282 86.726 174.253 86.6968C174.225 86.6676 174.191 86.6447 174.153 86.6297C174.115 86.6148 174.074 86.6081 174.033 86.6101C173.923 86.6146 173.818 86.6566 173.735 86.7291C173.652 86.8017 173.597 86.9002 173.58 87.0082H174.098ZM176.34 87.7016C176.34 87.9713 176.34 88.1126 176.573 88.1126C176.62 88.1231 176.669 88.1231 176.716 88.1126C176.725 88.1257 176.73 88.1414 176.73 88.1575C176.73 88.1737 176.725 88.1894 176.716 88.2025C176.656 88.2662 176.584 88.3173 176.504 88.3527C176.424 88.388 176.337 88.4068 176.249 88.4079C176.124 88.4103 176.004 88.3642 175.912 88.2795V88.2153C175.86 88.2248 175.811 88.2469 175.77 88.2795C175.656 88.3598 175.521 88.4045 175.381 88.4079C175.319 88.4134 175.256 88.4058 175.197 88.3855C175.138 88.3652 175.084 88.3327 175.039 88.2902C174.994 88.2477 174.958 88.1962 174.934 88.139C174.911 88.0818 174.899 88.0203 174.902 87.9585C174.902 87.7915 174.902 87.6374 175.29 87.5347L175.796 87.3421C175.886 87.3421 175.899 87.3421 175.899 87.2265V87.1109C175.899 86.8798 175.835 86.6743 175.614 86.6743C175.584 86.6707 175.554 86.6733 175.525 86.6819C175.496 86.6904 175.469 86.7048 175.446 86.7241C175.423 86.7433 175.404 86.7671 175.391 86.7939C175.377 86.8207 175.37 86.8499 175.368 86.8798C175.367 86.9108 175.358 86.941 175.342 86.9679C175.326 86.9947 175.304 87.0173 175.277 87.0339C175.189 87.092 175.085 87.1232 174.979 87.1238C174.957 87.124 174.936 87.1163 174.919 87.1021C174.903 87.0879 174.892 87.0683 174.889 87.0467C174.912 86.93 174.976 86.8253 175.07 86.7513C175.273 86.588 175.522 86.4895 175.783 86.4688C176.159 86.4688 176.379 86.6358 176.366 87.0339L176.34 87.7016ZM175.886 87.5475C175.892 87.5221 175.892 87.4959 175.886 87.4705H175.666C175.537 87.4705 175.407 87.5861 175.407 87.7787C175.405 87.8135 175.411 87.8483 175.423 87.8809C175.435 87.9136 175.454 87.9434 175.478 87.9687C175.502 87.9939 175.532 88.014 175.564 88.0277C175.596 88.0414 175.631 88.0484 175.666 88.0484C175.696 88.0501 175.726 88.0458 175.754 88.0356C175.783 88.0254 175.809 88.0096 175.83 87.9891C175.852 87.9687 175.87 87.944 175.882 87.9167C175.893 87.8893 175.899 87.8598 175.899 87.8301L175.886 87.5475ZM177.636 86.6743C177.558 86.6743 177.545 86.6743 177.545 86.8412V87.5475C177.545 87.8301 177.545 88.0869 177.882 88.0869C177.963 88.0893 178.041 88.0618 178.103 88.0098C178.114 88.0089 178.125 88.0109 178.135 88.0155C178.145 88.0202 178.154 88.0274 178.161 88.0365C178.167 88.0456 178.171 88.0562 178.173 88.0673C178.174 88.0783 178.172 88.0895 178.167 88.0997C178.097 88.1845 178.008 88.2519 177.906 88.2964C177.805 88.341 177.695 88.3616 177.584 88.3566C177.144 88.3566 177.066 88.0997 177.066 87.7787V86.8412C177.066 86.6871 177.066 86.6743 176.975 86.6743H176.82V86.5587C176.949 86.5106 177.071 86.4458 177.182 86.3661C177.288 86.2911 177.376 86.1948 177.442 86.0836C177.46 86.069 177.483 86.061 177.506 86.061C177.53 86.061 177.553 86.069 177.571 86.0836V86.3661L177.649 86.456H178.115C178.122 86.47 178.126 86.4854 178.126 86.5009C178.126 86.5165 178.122 86.5319 178.115 86.5459V86.6615L177.636 86.6743ZM180.228 87.3549C180.235 87.4884 180.214 87.622 180.166 87.7469C180.118 87.8718 180.044 87.9852 179.948 88.0797C179.853 88.1742 179.739 88.2478 179.613 88.2955C179.487 88.3432 179.352 88.364 179.217 88.3566C179.089 88.3656 178.96 88.3479 178.839 88.3045C178.718 88.2611 178.607 88.193 178.514 88.1047C178.422 88.0163 178.349 87.9097 178.3 87.7916C178.251 87.6735 178.228 87.5466 178.232 87.4191C178.228 87.2855 178.253 87.1526 178.303 87.0286C178.353 86.9045 178.429 86.7921 178.525 86.6982C178.621 86.6042 178.735 86.5309 178.861 86.4826C178.987 86.4343 179.121 86.4121 179.256 86.4175C179.383 86.4103 179.511 86.4294 179.63 86.4736C179.75 86.5179 179.859 86.5862 179.95 86.6744C180.041 86.7625 180.113 86.8686 180.161 86.9857C180.209 87.1029 180.232 87.2286 180.228 87.3549ZM179.269 88.1639C179.593 88.1639 179.684 87.7915 179.684 87.432C179.684 87.0724 179.541 86.5972 179.204 86.5972C178.867 86.5972 178.789 86.8412 178.789 87.3421C178.789 87.8429 178.932 88.1639 179.269 88.1639Z" fill="#FCFCFC"/>
<path d="M180.656 87.0595C180.656 86.8541 180.656 86.8027 180.539 86.7385H180.474C180.469 86.7045 180.469 86.6698 180.474 86.6358C180.675 86.5693 180.87 86.4877 181.057 86.3918V86.5973C181.183 86.4783 181.34 86.3979 181.511 86.3662C181.542 86.3625 181.573 86.3655 181.603 86.3748C181.633 86.3841 181.66 86.3996 181.684 86.4203C181.707 86.4409 181.726 86.4662 181.738 86.4945C181.751 86.5228 181.757 86.5535 181.757 86.5845C181.759 86.6192 181.754 86.654 181.741 86.6867C181.729 86.7193 181.71 86.7492 181.686 86.7744C181.662 86.7996 181.633 86.8197 181.6 86.8334C181.568 86.8471 181.533 86.8541 181.498 86.8541C181.46 86.8652 181.419 86.8652 181.381 86.8541C181.317 86.8052 181.241 86.7742 181.161 86.7642C181.044 86.7642 181.019 86.8798 181.019 87.0981V87.7273C181.019 88.0739 181.019 88.1125 181.2 88.1381H181.524C181.54 88.1584 181.548 88.1832 181.548 88.2088C181.548 88.2343 181.54 88.2592 181.524 88.2794H180.435C180.425 88.271 180.416 88.2602 180.41 88.248C180.404 88.2358 180.401 88.2224 180.401 88.2088C180.401 88.1952 180.404 88.1817 180.41 88.1695C180.416 88.1573 180.425 88.1466 180.435 88.1381H180.513C180.669 88.1381 180.695 88.1381 180.695 87.7273L180.656 87.0595ZM205.668 88.2023C205.642 88.0278 205.642 87.8505 205.668 87.6759C205.686 87.6613 205.709 87.6534 205.732 87.6534C205.756 87.6534 205.779 87.6613 205.797 87.6759C205.888 87.9327 206.056 88.1767 206.303 88.1767C206.337 88.1785 206.372 88.1731 206.404 88.1609C206.436 88.1486 206.465 88.1298 206.49 88.1056C206.514 88.0813 206.533 88.0523 206.546 88.0203C206.558 87.9883 206.564 87.9541 206.562 87.9199C206.562 87.7529 206.406 87.6374 206.251 87.5603C206.095 87.4833 205.758 87.2778 205.758 86.9825C205.758 86.6872 206.069 86.4047 206.445 86.4047C206.597 86.4019 206.747 86.4326 206.886 86.4946C206.919 86.6426 206.919 86.796 206.886 86.944C206.869 86.9576 206.849 86.965 206.827 86.965C206.806 86.965 206.785 86.9576 206.769 86.944C206.691 86.7257 206.549 86.5588 206.367 86.5588C206.334 86.5552 206.3 86.5585 206.268 86.5684C206.236 86.5782 206.206 86.5945 206.181 86.6161C206.155 86.6378 206.135 86.6644 206.12 86.6942C206.105 86.7241 206.097 86.7567 206.095 86.7899C206.095 86.9311 206.238 87.021 206.419 87.1109C206.601 87.2008 206.938 87.3806 206.938 87.7529C206.938 88.1253 206.575 88.3307 206.199 88.3307C206.013 88.34 205.828 88.2953 205.668 88.2023ZM207.961 87.7273C207.961 88.0739 207.961 88.1253 208.13 88.151H208.221C208.229 88.1594 208.236 88.1693 208.241 88.1804C208.245 88.1914 208.248 88.2032 208.248 88.2152C208.248 88.2271 208.245 88.239 208.241 88.25C208.236 88.261 208.229 88.271 208.221 88.2794H207.236C207.227 88.271 207.22 88.261 207.215 88.25C207.211 88.239 207.208 88.2271 207.208 88.2152C207.208 88.2032 207.211 88.1914 207.215 88.1804C207.22 88.1693 207.227 88.1594 207.236 88.151H207.313C207.482 88.151 207.495 88.0739 207.495 87.7273V87.0467C207.495 86.8413 207.495 86.7899 207.378 86.7129C207.365 86.6754 207.365 86.6348 207.378 86.5973C207.591 86.5419 207.795 86.4599 207.987 86.3533V86.9183L207.961 87.7273ZM207.443 85.493C207.441 85.4537 207.448 85.4145 207.462 85.3779C207.476 85.3412 207.498 85.3079 207.526 85.2801C207.554 85.2523 207.588 85.2306 207.625 85.2164C207.662 85.2022 207.701 85.1959 207.741 85.1977C207.82 85.1977 207.896 85.2288 207.952 85.2842C208.008 85.3396 208.039 85.4147 208.039 85.493C208.039 85.5312 208.031 85.569 208.016 85.6042C208.001 85.6393 207.979 85.671 207.951 85.6974C207.923 85.7239 207.89 85.7444 207.854 85.7578C207.818 85.7712 207.78 85.7772 207.741 85.7755C207.702 85.7793 207.663 85.7746 207.626 85.7619C207.589 85.7492 207.555 85.7288 207.527 85.702C207.498 85.6752 207.476 85.6426 207.462 85.6065C207.447 85.5705 207.441 85.5318 207.443 85.493ZM209.205 87.7273C209.205 88.0739 209.205 88.1253 209.387 88.151H209.465V88.2794H208.467C208.458 88.271 208.451 88.261 208.447 88.25C208.442 88.239 208.44 88.2271 208.44 88.2152C208.44 88.2032 208.442 88.1914 208.447 88.1804C208.451 88.1693 208.458 88.1594 208.467 88.151H208.57C208.726 88.151 208.752 88.0739 208.752 87.7273V87.0467C208.752 86.8413 208.752 86.7899 208.635 86.7129H208.57C208.561 86.6949 208.557 86.6751 208.557 86.6551C208.557 86.635 208.561 86.6152 208.57 86.5973C208.777 86.5362 208.977 86.4545 209.167 86.3533H209.231C209.227 86.4217 209.227 86.4904 209.231 86.5588C209.415 86.4199 209.636 86.3393 209.866 86.3276C210.242 86.3276 210.424 86.5845 210.424 86.944V87.663C210.424 88.0097 210.424 88.0611 210.605 88.0868H210.709V88.2152H209.711C209.702 88.2068 209.695 88.1968 209.691 88.1858C209.686 88.1748 209.684 88.1629 209.684 88.151C209.684 88.139 209.686 88.1272 209.691 88.1162C209.695 88.1051 209.702 88.0952 209.711 88.0868H209.776C209.944 88.0868 209.957 88.0097 209.957 87.663V87.021C209.957 86.7899 209.866 86.6101 209.581 86.6101C209.522 86.6076 209.463 86.6191 209.409 86.6437C209.355 86.6682 209.307 86.7051 209.27 86.7514V87.0467L209.205 87.7273ZM212.497 86.456C212.527 86.4867 212.55 86.5229 212.566 86.5626C212.582 86.6023 212.589 86.6446 212.588 86.6872C212.588 86.8413 212.51 86.9055 212.471 86.9055H212.381C212.334 86.8303 212.272 86.7661 212.198 86.7173C212.124 86.6685 212.041 86.6363 211.953 86.623C211.789 86.6454 211.64 86.7304 211.538 86.86C211.437 86.9895 211.39 87.1533 211.409 87.3164C211.401 87.4089 211.414 87.5019 211.444 87.5896C211.475 87.6773 211.523 87.7579 211.586 87.8265C211.649 87.895 211.726 87.9501 211.811 87.9882C211.896 88.0263 211.989 88.0468 212.082 88.0483C212.182 88.0618 212.283 88.0458 212.373 88.0023C212.463 87.9589 212.537 87.89 212.588 87.8043C212.602 87.814 212.614 87.8276 212.621 87.8435C212.628 87.8595 212.63 87.8771 212.627 87.8942C212.555 88.048 212.44 88.1775 212.295 88.2666C212.15 88.3556 211.981 88.4003 211.81 88.395C211.688 88.4004 211.566 88.3806 211.452 88.3367C211.338 88.2928 211.234 88.2259 211.147 88.1401C211.061 88.0543 210.993 87.9516 210.949 87.8385C210.905 87.7255 210.885 87.6045 210.89 87.4833C210.891 87.3382 210.923 87.1949 210.983 87.0625C211.042 86.93 211.129 86.8112 211.238 86.7136C211.346 86.6159 211.473 86.5415 211.612 86.495C211.751 86.4484 211.898 86.4308 212.044 86.4432C212.194 86.417 212.348 86.4214 212.497 86.456ZM213.34 87.1879H213.249C213.242 87.2838 213.255 87.3802 213.286 87.471C213.318 87.5618 213.368 87.6453 213.434 87.7162C213.499 87.7871 213.579 87.8441 213.667 87.8835C213.756 87.9229 213.852 87.944 213.949 87.9455C214.038 87.9503 214.127 87.9314 214.207 87.8908C214.287 87.8502 214.354 87.7893 214.402 87.7144C214.417 87.7039 214.436 87.6983 214.454 87.6983C214.473 87.6983 214.491 87.7039 214.506 87.7144C214.44 87.8675 214.329 87.9979 214.189 88.0893C214.048 88.1806 213.883 88.2289 213.715 88.228C213.593 88.2318 213.471 88.2103 213.358 88.1648C213.244 88.1193 213.141 88.0509 213.056 87.964C212.971 87.877 212.905 87.7733 212.862 87.6596C212.819 87.5459 212.801 87.4246 212.808 87.3035C212.801 87.1711 212.821 87.0387 212.868 86.9143C212.914 86.7899 212.986 86.6761 213.078 86.58C213.17 86.4839 213.281 86.4074 213.404 86.3552C213.527 86.3029 213.659 86.2761 213.793 86.2763C213.881 86.2692 213.97 86.2802 214.054 86.3085C214.138 86.3368 214.215 86.3818 214.28 86.4408C214.346 86.4997 214.399 86.5714 214.435 86.6513C214.472 86.7312 214.491 86.8177 214.493 86.9055C214.505 86.9387 214.505 86.975 214.493 87.0082H214.182L213.34 87.1879ZM213.767 86.9953C213.844 87.0085 213.923 87.0085 214 86.9953C214.012 86.9621 214.012 86.9259 214 86.8926C214.003 86.8522 213.996 86.8118 213.981 86.7742C213.966 86.7366 213.942 86.7026 213.913 86.6746C213.883 86.6466 213.848 86.6252 213.81 86.6119C213.771 86.5985 213.73 86.5936 213.689 86.5973C213.578 86.5993 213.472 86.6405 213.389 86.7134C213.305 86.7864 213.251 86.8864 213.236 86.9953H213.301H213.767ZM216.061 87.6502C216.061 88.0996 216.061 88.0996 216.359 88.1381H216.476V88.2666H215.18V88.1381H215.309C215.582 88.1381 215.607 88.1381 215.607 87.6502V86.1864C215.607 85.8782 215.607 85.7627 215.374 85.7498H215.154C215.14 85.7336 215.133 85.7132 215.133 85.692C215.133 85.6709 215.14 85.6504 215.154 85.6343C215.47 85.5833 215.776 85.4836 216.061 85.3389V85.8911V87.6502ZM218.109 85.3261C218.255 85.325 218.4 85.3568 218.533 85.4191C218.665 85.4813 218.781 85.5724 218.873 85.6856C219.059 85.9472 219.147 86.2655 219.119 86.5845C219.115 86.8708 219.044 87.1523 218.914 87.408C218.784 87.6637 218.597 87.887 218.368 88.0611C218.034 88.3119 217.65 88.4872 217.24 88.5747C217.222 88.5556 217.212 88.5304 217.212 88.5041C217.212 88.4778 217.222 88.4526 217.24 88.4335C217.477 88.3566 217.7 88.244 217.901 88.0996C218.135 87.9071 218.319 87.6624 218.438 87.3855C218.558 87.1087 218.609 86.8077 218.588 86.5074C218.588 85.9681 218.459 85.5187 218.109 85.5187C217.759 85.5187 217.707 85.7113 217.694 86.0965C217.681 86.4817 217.875 86.8798 218.173 86.8798H218.316V86.9953C218.184 87.0774 218.031 87.1177 217.875 87.1109C217.771 87.1115 217.669 87.0903 217.573 87.0488C217.478 87.0073 217.393 86.9464 217.324 86.8701C217.254 86.7937 217.201 86.7037 217.169 86.6058C217.137 86.5079 217.126 86.4044 217.137 86.302C217.135 86.1744 217.159 86.0478 217.207 85.9295C217.255 85.8112 217.326 85.7035 217.417 85.6127C217.507 85.5219 217.615 85.4498 217.734 85.4006C217.852 85.3514 217.98 85.3261 218.109 85.3261ZM221.258 85.249C221.222 85.3861 221.156 85.5134 221.063 85.6214L220.104 85.7498C219.975 85.7498 219.962 85.7498 219.936 85.8782V86.0452L220.04 86.135H220.364C220.726 86.1992 221.4 86.3918 221.4 87.1238C221.4 87.8557 220.402 88.4078 219.651 88.4977C219.639 88.4869 219.63 88.4739 219.624 88.4596C219.618 88.4452 219.615 88.4298 219.615 88.4142C219.615 88.3986 219.618 88.3832 219.624 88.3688C219.63 88.3545 219.639 88.3415 219.651 88.3307C220.312 88.2537 220.947 87.9327 220.947 87.2907C220.947 86.6487 220.273 86.4946 219.754 86.4817C219.651 86.4817 219.638 86.4817 219.677 86.3405L219.923 85.4288C219.923 85.4288 219.923 85.3132 220.053 85.3132L221.258 85.249ZM223.785 86.0195C223.77 86.1677 223.714 86.3088 223.622 86.4268C223.531 86.5449 223.407 86.635 223.267 86.6872C223.441 86.7603 223.591 86.8812 223.699 87.0359C223.807 87.1905 223.868 87.3725 223.876 87.5603C223.876 88.0868 223.396 88.3436 222.891 88.3436C222.385 88.3436 221.945 88.151 221.945 87.6117C221.959 87.4382 222.024 87.2726 222.132 87.1356C222.24 86.9986 222.387 86.8962 222.554 86.8413C222.408 86.7797 222.282 86.6805 222.189 86.5539C222.095 86.4274 222.038 86.2783 222.022 86.1222C222.028 86.0049 222.059 85.89 222.112 85.785C222.166 85.68 222.24 85.5872 222.332 85.5123C222.423 85.4374 222.529 85.3822 222.643 85.3502C222.757 85.3181 222.877 85.3099 222.994 85.3261C223.092 85.3191 223.191 85.3316 223.284 85.3629C223.377 85.3941 223.463 85.4435 223.537 85.5081C223.61 85.5727 223.67 85.6512 223.713 85.739C223.755 85.8268 223.78 85.9222 223.785 86.0195ZM223.37 87.7016C223.37 87.342 223.111 87.1238 222.722 86.9311C222.616 87.0036 222.531 87.1019 222.474 87.2166C222.417 87.3313 222.391 87.4585 222.398 87.586C222.389 87.6586 222.396 87.7324 222.417 87.8023C222.439 87.8723 222.476 87.9367 222.525 87.9915C222.574 88.0462 222.635 88.0899 222.702 88.1196C222.77 88.1493 222.843 88.1644 222.917 88.1638C222.978 88.1657 223.039 88.155 223.095 88.1322C223.152 88.1095 223.204 88.0753 223.246 88.0318C223.289 87.9883 223.322 87.9365 223.343 87.8796C223.365 87.8228 223.374 87.7621 223.37 87.7016ZM222.489 85.981C222.489 86.2891 222.839 86.4561 223.098 86.5845C223.187 86.5195 223.258 86.434 223.305 86.3355C223.353 86.237 223.375 86.1285 223.37 86.0195C223.375 85.956 223.368 85.8922 223.348 85.8317C223.328 85.7712 223.295 85.7154 223.253 85.6675C223.211 85.6196 223.159 85.5806 223.101 85.5528C223.044 85.5251 222.981 85.5091 222.917 85.5059C222.856 85.5074 222.797 85.5211 222.743 85.5462C222.688 85.5713 222.639 85.6072 222.599 85.6517C222.559 85.6962 222.528 85.7484 222.51 85.805C222.491 85.8617 222.484 85.9215 222.489 85.981ZM82.6947 81.474C82.7232 82.0804 82.6257 82.6862 82.408 83.2537C82.1904 83.8212 81.8574 84.3384 81.4296 84.7731C81.0019 85.2078 80.4885 85.5507 79.9214 85.7805C79.3543 86.0104 78.7455 86.1223 78.1329 86.1094C77.1516 86.1185 76.1886 85.8465 75.3596 85.3261C75.2953 85.3148 75.2295 85.3148 75.1652 85.3261C75.0874 85.3261 74.9578 85.3261 74.3358 85.8397C74.2614 85.9104 74.1659 85.9554 74.0636 85.9681C73.9211 85.9681 73.8174 85.8654 73.8174 85.6728C73.8174 84.9023 74.0507 79.1755 74.0507 75.5802C74.0507 71.7281 74.0507 71.7281 72.7547 71.4841C72.677 71.4841 72.6251 71.3428 72.6251 71.2401C72.6251 71.1374 72.6251 71.009 72.7547 70.9962C73.7585 70.8005 74.7338 70.4813 75.6576 70.046C75.7132 70.0342 75.7706 70.0342 75.8261 70.046C75.9428 70.046 76.0335 70.123 76.0335 70.3156L75.9298 73.3331C75.9298 74.6172 75.9298 76.1066 75.865 77.3265V77.8915H75.9557C76.6875 77.4324 77.539 77.1958 78.4051 77.2109C78.9744 77.193 79.5413 77.2911 80.0708 77.4992C80.6003 77.7072 81.081 78.0208 81.4832 78.4205C81.8853 78.8202 82.2004 79.2974 82.4088 79.8226C82.6172 80.3479 82.7145 80.9099 82.6947 81.474ZM77.9904 77.7759C77.5099 77.7428 77.0329 77.8776 76.6423 78.1567C76.2517 78.4359 75.972 78.8418 75.852 79.3039V82.4241C75.9428 84.1062 76.6037 85.5059 78.1977 85.5059C79.377 85.5059 80.6082 84.5685 80.6082 82.1802C80.6082 80.4981 79.9602 77.8016 77.9904 77.8016V77.7759ZM92.9197 78.9059C91.3516 82.4627 90.3278 86.3533 88.4228 89.8074C87.8785 90.7704 86.9195 92.3755 85.5198 92.3755C84.8719 92.3755 84.496 92.016 84.496 91.4895C84.5136 91.1955 84.6326 90.9163 84.8331 90.6989C85.0337 90.4815 85.3036 90.339 85.5976 90.2953C86.3104 90.1926 86.8935 90.3981 87.5286 89.5891C88.2607 88.5579 88.8329 87.424 89.2263 86.2249C89.2277 86.0896 89.1918 85.9564 89.1226 85.8397C88.021 83.7339 86.427 80.0615 85.8049 78.8288C85.7184 78.5906 85.5628 78.3831 85.3575 78.2323C85.1523 78.0816 84.9067 77.9942 84.6516 77.9814C84.6084 77.9399 84.5745 77.8899 84.5522 77.8345C84.5299 77.7792 84.5196 77.7199 84.522 77.6603C84.522 77.5063 84.522 77.3907 84.7293 77.3907C84.9367 77.3907 85.8957 77.5063 87.1139 77.5063C87.699 77.5083 88.2837 77.4697 88.8634 77.3907C88.993 77.3907 89.0707 77.5319 89.0707 77.6989C89.0758 77.7609 89.0626 77.823 89.0327 77.8777C89.0028 77.9325 88.9575 77.9774 88.9023 78.007C88.4746 78.0712 87.8655 78.1483 87.8655 78.5592C88.5207 80.3626 89.3135 82.114 90.2371 83.7981C90.2371 83.7981 90.3149 83.7981 90.3537 83.6825C90.9823 82.0296 91.523 80.3452 91.9737 78.6362C91.9737 78.174 91.3516 78.0712 90.7555 78.007C90.6561 77.9175 90.5957 77.7932 90.587 77.6603C90.5834 77.629 90.5864 77.5972 90.5957 77.567C90.605 77.5368 90.6204 77.5088 90.6411 77.4847C90.6617 77.4606 90.6871 77.441 90.7157 77.4271C90.7443 77.4131 90.7755 77.4051 90.8073 77.4035C91.3882 77.469 91.9722 77.5033 92.5569 77.5063C93.086 77.5066 93.6145 77.4679 94.1379 77.3907C94.2675 77.3907 94.3712 77.5319 94.3712 77.6989C94.3705 77.7597 94.3517 77.819 94.3172 77.8693C94.2826 77.9195 94.2337 77.9585 94.1768 77.9814C93.9051 78.0165 93.647 78.1199 93.4269 78.2817C93.2069 78.4435 93.0323 78.6584 92.9197 78.9059Z" fill="#FCFCFC"/>
</svg>
